<svg xmlns="http://www.w3.org/2000/svg" xmlns:xlink="http://www.w3.org/1999/xlink" width="20" height="20" viewBox="0 0 20 20" fill="none"><path d="M2.67 2.49976C2.94 2.49976 3.22 2.74976 3.26 3.04976L3.86 6.53976L4.92 13.9998C5.03 14.9098 5.82 15.6298 6.72 15.6298L16.88 15.6298C17.22 15.6298 17.5 15.3498 17.5 14.9998C17.5 14.6598 17.22 14.3798 16.88 14.3798L6.72 14.3798C6.46 14.3798 6.2 14.1298 6.16 13.8398L5.1 6.34976L4.5 2.86976C4.38 1.95976 3.58 1.24976 2.67 1.24976L1.87 1.24976C1.53 1.24976 1.25 1.52976 1.25 1.86976C1.25 2.21976 1.53 2.49976 1.87 2.49976L2.67 2.49976ZM5.6245 3.75456C5.6245 4.10456 5.9045 4.38456 6.2445 4.38456L17.0745 4.38456C17.1945 4.38456 17.2945 4.42456 17.3745 4.51456C17.5045 4.66456 17.5545 4.89456 17.5345 5.10456L16.5545 10.7346C16.5145 11.0146 16.2545 11.2546 15.9445 11.2546L7.4645 11.8846C7.1145 11.9046 6.8545 12.2046 6.8845 12.5446C6.9045 12.8746 7.1845 13.1246 7.5045 13.1246L7.5545 13.1246L15.9845 12.5046C16.8845 12.5046 17.6745 11.7846 17.7845 10.9146L18.7645 5.27456C18.8345 4.67456 18.6745 4.09456 18.3045 3.68456C17.9845 3.32456 17.5445 3.12456 17.0745 3.12456L6.2445 3.12456C5.9045 3.12456 5.6245 3.41456 5.6245 3.75456ZM5.6343 17.5005C5.6343 18.1905 6.1943 18.7505 6.8843 18.7505C7.5743 18.7505 8.1343 18.1905 8.1343 17.5005C8.1343 16.8105 7.5743 16.2505 6.8843 16.2505C6.1943 16.2505 5.6343 16.8105 5.6343 17.5005ZM14.3865 17.5005C14.3865 18.1905 14.9465 18.7505 15.6365 18.7505C16.3265 18.7505 16.8865 18.1905 16.8865 17.5005C16.8865 16.8105 16.3265 16.2505 15.6365 16.2505C14.9465 16.2505 14.3865 16.8105 14.3865 17.5005Z" fill-rule="evenodd"  fill="#333333" ></path></svg>