<svg xmlns="http://www.w3.org/2000/svg" xmlns:xlink="http://www.w3.org/1999/xlink" width="16" height="16" viewBox="0 0 16 16" fill="none"><path d="M9.11911 7.988L15.3423 1.7656C15.6545 1.45322 15.6543 0.946162 15.3419 0.633999C15.0295 0.321836 14.5225 0.322015 14.2103 0.634399L7.98791 6.856L7.98791 6.8568L1.76551 0.634399C1.4516 0.331221 0.95264 0.335557 0.644053 0.644144C0.335466 0.952731 0.33113 1.4517 0.634308 1.7656L6.85591 7.988L0.634308 14.2104C0.321924 14.5226 0.321744 15.0296 0.633908 15.342C0.946071 15.6544 1.45312 15.6546 1.76551 15.3424L7.98791 9.1192L14.2103 15.3424C14.5227 15.6548 15.0299 15.6548 15.3423 15.3424C15.6547 15.03 15.6547 14.5228 15.3423 14.2104L9.11911 7.988Z"   fill="#333333" ></path></svg>