<svg xmlns="http://www.w3.org/2000/svg" xmlns:xlink="http://www.w3.org/1999/xlink" width="20" height="20" viewBox="0 0 20 20" fill="none"><path d="M16.6666 10.4168C16.6666 10.0718 16.9466 9.79176 17.2916 9.79176C17.6365 9.79176 17.9166 10.0718 17.9166 10.4168L17.9166 15.6251C17.9166 16.8907 16.8905 17.9168 15.6249 17.9168L4.37492 17.9168C3.10929 17.9168 2.08325 16.8907 2.08325 15.6251L2.08325 5.00009C2.08325 3.73446 3.10929 2.70842 4.37492 2.70842L9.79158 2.70842C10.1365 2.70842 10.4166 2.98848 10.4166 3.33342C10.4166 3.67837 10.1365 3.95842 9.79158 3.95842L4.37492 3.95842C3.79962 3.95842 3.33325 4.42479 3.33325 5.00009L3.33325 15.6251C3.33325 16.2004 3.79962 16.6668 4.37492 16.6668L15.6249 16.6668C16.2002 16.6668 16.6666 16.2004 16.6666 15.6251L16.6666 10.4168ZM15.8451 5.00009L14.0914 3.13676C13.855 2.88552 13.867 2.48962 14.1183 2.25321C14.3695 2.01681 14.7654 2.02885 15.0018 2.28009L17.7468 5.19676C18.1222 5.59551 17.8393 6.25009 17.2916 6.25009L14.1543 6.25009C12.5591 6.25009 11.2499 7.64092 11.2499 9.37509L11.2499 13.1251C11.2499 13.47 10.9699 13.7501 10.6249 13.7501C10.28 13.7501 9.99992 13.47 9.99992 13.1251L9.99992 9.37509C9.99992 6.96696 11.8512 5.00009 14.1543 5.00009L15.8451 5.00009Z" fill-rule="evenodd"  fill="#333333" ></path></svg>